<svg width="33" height="13" viewBox="0 0 33 13" fill="none" xmlns="http://www.w3.org/2000/svg">
<path d="M9.15701 5.6664C8.98646 5.83799 8.85587 6.04508 8.77451 6.27287C8.69315 6.5007 8.66304 6.74366 8.6863 6.98445L8.6782 6.97635C8.70214 7.25981 8.6639 7.54502 8.5662 7.81218C8.46851 8.0793 8.31371 8.3219 8.1126 8.52305C7.91145 8.72415 7.66885 8.879 7.40169 8.97665C7.13457 9.07434 6.84931 9.11259 6.5659 9.08865L6.57401 9.09675C6.23498 9.06521 5.89446 9.13896 5.59885 9.30803C5.30329 9.47709 5.06705 9.73319 4.92237 10.0414C4.7777 10.3497 4.73157 10.695 4.79034 11.0304C4.84915 11.3658 5.00994 11.6749 5.25082 11.9156C5.49171 12.1563 5.80095 12.3168 6.13638 12.3752C6.47185 12.4337 6.81714 12.3873 7.12525 12.2423C7.43337 12.0974 7.68924 11.8609 7.85804 11.5652C8.02683 11.2694 8.10032 10.9289 8.06846 10.5899L8.077 10.598C8.05306 10.3145 8.09127 10.0293 8.18896 9.76212C8.28666 9.495 8.44151 9.25241 8.64261 9.05126C8.84376 8.85015 9.08636 8.69531 9.35348 8.59766C9.62064 8.49996 9.90585 8.46171 10.1893 8.48565L10.1808 8.47755C10.4577 8.50244 10.7365 8.45703 10.9912 8.34552C11.2459 8.23401 11.4684 8.06 11.6379 7.83963C11.8075 7.61927 11.9187 7.35962 11.9612 7.08485C12.0038 6.81003 11.9762 6.52896 11.8812 6.2676C11.7861 6.00629 11.6267 5.77319 11.4175 5.5899C11.2084 5.40662 10.9564 5.27909 10.6849 5.21915C10.4134 5.15921 10.1311 5.16875 9.86423 5.24691C9.59738 5.32512 9.3546 5.46939 9.15836 5.6664H9.15701Z" fill="white"/>
<path d="M5.83738 8.03562L5.82883 8.02752C6.06971 8.05178 6.31298 8.02221 6.54109 7.94094C6.76915 7.85967 6.97633 7.72877 7.1476 7.55763C7.31882 7.3865 7.44995 7.17941 7.53136 6.95139C7.61281 6.72338 7.64255 6.48015 7.61848 6.23922L7.62703 6.24732C7.60309 5.96387 7.64134 5.67866 7.73899 5.41149C7.83668 5.14437 7.99153 4.90178 8.19263 4.70063C8.39378 4.49952 8.63638 4.34468 8.9035 4.24703C9.17066 4.14932 9.45587 4.1111 9.73933 4.13502L9.73078 4.12692C10.0699 4.15878 10.4105 4.08524 10.7062 3.91637C11.002 3.7475 11.2384 3.49151 11.3833 3.18332C11.5282 2.87513 11.5745 2.52974 11.5159 2.19426C11.4573 1.85878 11.2967 1.54955 11.0558 1.30874C10.8151 1.06793 10.5058 0.907264 10.1703 0.848665C9.83486 0.790062 9.48949 0.836372 9.18128 0.981281C8.87308 1.12619 8.61712 1.36264 8.44823 1.65838C8.27935 1.95412 8.20582 2.29476 8.23768 2.63382L8.22958 2.62527C8.25356 2.90872 8.2154 3.194 8.11775 3.46117C8.0201 3.72835 7.86526 3.97098 7.66415 4.17215C7.463 4.37325 7.22036 4.5281 6.9532 4.62575C6.68599 4.7234 6.40073 4.76156 6.11728 4.73757L6.12538 4.74612C5.88449 4.72187 5.64118 4.75143 5.41312 4.8327C5.18506 4.91393 4.97788 5.04488 4.80661 5.21601C4.63534 5.38715 4.50425 5.59424 4.4228 5.82225C4.3414 6.05027 4.31165 6.29349 4.33573 6.53442L4.32763 6.52632C4.35148 6.80973 4.31318 7.09494 4.21549 7.36206C4.11775 7.62914 3.96295 7.87173 3.76184 8.07284C3.56072 8.27394 3.31815 8.42874 3.05105 8.52648C2.78395 8.62418 2.49874 8.66247 2.21533 8.63862L2.22343 8.64672C1.88436 8.61486 1.54373 8.68839 1.24798 8.85728C0.952241 9.02616 0.715788 9.28212 0.570884 9.59033C0.425975 9.89853 0.379661 10.2439 0.438264 10.5794C0.496868 10.9149 0.657536 11.2241 0.898344 11.4649C1.13916 11.7057 1.44839 11.8664 1.78387 11.925C2.11935 11.9836 2.46474 11.9373 2.77293 11.7924C3.08111 11.6475 3.33711 11.411 3.50597 11.1153C3.67486 10.8195 3.74839 10.4789 3.71653 10.1398L3.72508 10.1479C3.70114 9.86447 3.73939 9.57926 3.83708 9.31209C3.93473 9.04497 4.08958 8.80238 4.29068 8.60123C4.49183 8.40012 4.73443 8.24528 5.00155 8.14763C5.26871 8.04993 5.55392 8.01168 5.83738 8.03562Z" fill="white"/>
<path d="M2.82145 7.13246C2.99201 6.96092 3.12259 6.75383 3.20388 6.526C3.28517 6.29816 3.31516 6.05516 3.2917 5.81441L3.30025 5.82251C3.27631 5.53901 3.31454 5.25367 3.41229 4.98646C3.51003 4.71925 3.66493 4.47661 3.86617 4.27546C4.06741 4.07432 4.3101 3.91952 4.57735 3.82189C4.84461 3.72426 5.12996 3.68615 5.41346 3.71021L5.40491 3.70211C5.74385 3.73387 6.08436 3.6603 6.37997 3.49144C6.67557 3.32259 6.91186 3.06666 7.05672 2.75856C7.20153 2.45047 7.24779 2.10521 7.1892 1.76985C7.13061 1.4345 6.96996 1.12538 6.72925 0.884661C6.48855 0.643938 6.1794 0.483324 5.84406 0.424725C5.50872 0.366122 5.16344 0.412391 4.85536 0.55721C4.54725 0.702029 4.29133 0.938355 4.12249 1.23396C3.95361 1.52957 3.88003 1.87006 3.9118 2.20901L3.9037 2.20091C3.92764 2.48434 3.88939 2.76959 3.7917 3.03672C3.694 3.30386 3.53921 3.54646 3.33808 3.74759C3.13695 3.94872 2.89435 4.10354 2.62721 4.20121C2.36007 4.2989 2.07484 4.33715 1.7914 4.31321L1.7995 4.32131C1.52256 4.29647 1.24383 4.34197 0.989136 4.45352C0.734445 4.56508 0.512032 4.73914 0.342513 4.95955C0.172993 5.17991 0.061852 5.43956 0.019381 5.71433C-0.0230855 5.98915 0.00449501 6.27022 0.0995665 6.53149C0.194638 6.7928 0.354132 7.02586 0.56326 7.2091C0.772389 7.39238 1.02439 7.51987 1.29591 7.57981C1.56743 7.6397 1.84968 7.63012 2.11652 7.55195C2.38335 7.47374 2.62612 7.32947 2.82235 7.13246H2.82145Z" fill="white"/>
<path d="M17.5876 8.5949V9.8999H16.8046C16.2466 9.8999 15.8116 9.7649 15.4996 9.4949C15.1876 9.2189 15.0316 8.7719 15.0316 8.1539V6.1559H14.4196V4.8779H15.0316V3.6539H16.5706V4.8779H17.5786V6.1559H16.5706V8.1719C16.5706 8.3219 16.6066 8.4299 16.6786 8.4959C16.7506 8.5619 16.8706 8.5949 17.0386 8.5949H17.5876ZM19.2188 4.3559C18.9488 4.3559 18.7268 4.2779 18.5528 4.1219C18.3848 3.9599 18.3008 3.7619 18.3008 3.5279C18.3008 3.2879 18.3848 3.0899 18.5528 2.9339C18.7268 2.7719 18.9488 2.6909 19.2188 2.6909C19.4828 2.6909 19.6988 2.7719 19.8668 2.9339C20.0408 3.0899 20.1278 3.2879 20.1278 3.5279C20.1278 3.7619 20.0408 3.9599 19.8668 4.1219C19.6988 4.2779 19.4828 4.3559 19.2188 4.3559ZM19.9838 4.8779V9.8999H18.4448V4.8779H19.9838ZM20.7931 7.3799C20.7931 6.8639 20.8891 6.4109 21.0811 6.0209C21.2791 5.6309 21.5461 5.3309 21.8821 5.1209C22.2181 4.9109 22.5931 4.8059 23.0071 4.8059C23.3611 4.8059 23.6701 4.8779 23.9341 5.0219C24.2041 5.1659 24.4111 5.3549 24.5551 5.5889V4.8779H26.0941V9.8999H24.5551V9.1889C24.4051 9.4229 24.1951 9.6119 23.9251 9.7559C23.6611 9.8999 23.3521 9.9719 22.9981 9.9719C22.5901 9.9719 22.2181 9.8669 21.8821 9.6569C21.5461 9.4409 21.2791 9.1379 21.0811 8.7479C20.8891 8.3519 20.7931 7.8959 20.7931 7.3799ZM24.5551 7.3889C24.5551 7.0049 24.4471 6.7019 24.2311 6.4799C24.0211 6.2579 23.7631 6.1469 23.4571 6.1469C23.1511 6.1469 22.8901 6.2579 22.6741 6.4799C22.4641 6.6959 22.3591 6.9959 22.3591 7.3799C22.3591 7.7639 22.4641 8.0699 22.6741 8.2979C22.8901 8.5199 23.1511 8.6309 23.4571 8.6309C23.7631 8.6309 24.0211 8.5199 24.2311 8.2979C24.4471 8.0759 24.5551 7.7729 24.5551 7.3889ZM30.2675 4.8239C30.8555 4.8239 31.3235 5.0159 31.6715 5.3999C32.0255 5.7779 32.2025 6.2999 32.2025 6.9659V9.8999H30.6725V7.1729C30.6725 6.8369 30.5855 6.5759 30.4115 6.3899C30.2375 6.2039 30.0035 6.1109 29.7095 6.1109C29.4155 6.1109 29.1815 6.2039 29.0075 6.3899C28.8335 6.5759 28.7465 6.8369 28.7465 7.1729V9.8999H27.2075V4.8779H28.7465V5.5439C28.9025 5.3219 29.1125 5.1479 29.3765 5.0219C29.6405 4.8899 29.9375 4.8239 30.2675 4.8239Z" fill="white"/>
</svg>
