<svg width="68" height="57" viewBox="0 0 68 57" fill="none" xmlns="http://www.w3.org/2000/svg">
<g clip-path="url(#clip0_126_3750)">
<path d="M66.5511 56.6501C68.6159 50.5089 68.6618 37.0749 52.3267 32.469C40.7189 29.196 35.1431 23.791 32.833 19.5595C31.3703 16.88 30.9646 13.6619 29.1496 11.2073C24.3602 4.73014 14.3002 -0.927544 -0.900003 10.8211" stroke="white" stroke-width="0.9"/>
<path d="M58.901 62.5001C60.9659 56.9363 61.0117 44.7653 44.6767 40.5924C33.7478 37.8005 28.1659 33.2965 25.6224 29.5796C23.7421 26.8318 23.2211 23.2544 21.0156 20.7601C16.0505 15.1448 6.15592 10.6818 -8.55003 20.9798" stroke="white" stroke-width="0.9"/>
<path d="M52.6011 71.0502C54.6659 65.6963 54.7118 53.9846 38.3768 49.9692C27.7237 47.3505 22.1512 43.1663 19.5209 39.6441C17.4614 36.8863 16.8781 33.1582 14.5076 30.6625C9.47689 25.3662 -0.3467 21.3239 -14.85 31.0966" stroke="white" stroke-width="0.9"/>
<path d="M41.3511 76.0001C43.4159 70.6462 43.4618 58.9345 27.1268 54.9191C16.4737 52.3004 10.9012 48.1162 8.27092 44.5941C6.21141 41.8362 5.6281 38.1081 3.2576 35.6125C-1.77311 30.3161 -11.5967 26.2738 -26.1 36.0466" stroke="white" stroke-width="0.9"/>
</g>
<defs>
<clipPath id="clip0_126_3750">
<rect width="67.5" height="56.25" fill="white" transform="matrix(-1 0 0 -1 67.5 56.6501)"/>
</clipPath>
</defs>
</svg>
