<svg width="68" height="57" viewBox="0 0 68 57" fill="none" xmlns="http://www.w3.org/2000/svg">
<g clip-path="url(#clip0_126_3757)">
<path d="M1.04905 0.650146C-1.01578 6.79139 -1.06166 20.2254 15.2734 24.8313C26.8812 28.1043 32.457 33.5093 34.7671 37.7408C36.2298 40.4203 36.6355 43.6384 38.4505 46.093C43.2399 52.5702 53.2999 58.2278 68.5001 46.4792" stroke="white" stroke-width="0.9"/>
<path d="M8.69895 -5.19983C6.63412 0.364036 6.58824 12.535 22.9233 16.7079C33.8522 19.4997 39.4341 24.0038 41.9776 27.7207C43.8579 30.4685 44.3788 34.0459 46.5843 36.5402C51.5495 42.1555 61.4441 46.6185 76.15 36.3205" stroke="white" stroke-width="0.9"/>
<path d="M14.999 -13.7499C12.9342 -8.39597 12.8883 3.3157 29.2233 7.33114C39.8764 9.94983 45.4489 14.134 48.0792 17.6561C50.1387 20.414 50.722 24.1421 53.0925 26.6378C58.1232 31.9341 67.9468 35.9764 82.4501 26.2037" stroke="white" stroke-width="0.9"/>
<path d="M26.249 -18.6998C24.1842 -13.3459 24.1383 -1.63425 40.4733 2.38118C51.1264 4.99987 56.6989 9.18405 59.3292 12.7062C61.3887 15.4641 61.972 19.1922 64.3425 21.6878C69.3732 26.9842 79.1968 31.0265 93.7001 21.2537" stroke="white" stroke-width="0.9"/>
</g>
<defs>
<clipPath id="clip0_126_3757">
<rect width="67.5" height="56.25" fill="white" transform="translate(0.100098 0.650146)"/>
</clipPath>
</defs>
</svg>
